<?xml version="1.0" standalone="no"?><!DOCTYPE svg PUBLIC "-//W3C//DTD SVG 1.1//EN" "http://www.w3.org/Graphics/SVG/1.1/DTD/svg11.dtd"><svg t="1744377937584" class="icon" viewBox="0 0 1024 1024" version="1.1" xmlns="http://www.w3.org/2000/svg" p-id="9219" width="128" height="128" xmlns:xlink="http://www.w3.org/1999/xlink"><path d="M503.073 85.645s-101.465 11.239-178.531 47.592c-77.066 36.351-99.963 80.079-22.153 76.601 77.81-3.48 228.508 39.229 235.178 42.501 6.674 3.273 67.237 29.209 67.237 29.209 27.58-134.145 52.725-200.39-101.731-195.903zM664.59 309.695l32.484-128.673C744.128 66.725 920.452 313.568 934.53 412.434c8.148 40.143-6.939 55.857-47.816 41.085-76.917-27.8-155.305-94.113-222.124-143.824zM576.705 353.641s-154.109-53.382-285.046-37.268c-85.48 10.52-139.112 25.866-172.867 73.547-33.682 47.577-33.083 99.428-30.23 146.748 2.218 36.762 5.299 77.441 33.375 96.482 52.837 35.826 130.191 7.545 169.722-8.313 20.075-8.053 95.071-41.949 155.1-95.166 61.208-54.263 93.439-106.932 129.946-176.03zM634.622 377.07s-65.863 179.775-202.136 298.746c-72.142 62.984-91.342 147.063-64.162 201.826 9.853 19.857 30.188 34.963 50.122 45.084 48.351 24.547 111.738 16.412 190.093 3.42 85.251-14.135 199.409-77.295 251.804-163.176 54.896-89.979 35.083-142.35-45.997-243.576-68.576-85.621-98.781-93.453-179.724-142.324z" fill="#E11D48" p-id="9220"></path></svg>